<svg width="67" height="67" viewBox="0 0 67 67" fill="none" xmlns="http://www.w3.org/2000/svg">
<path d="M0 24.2475C0 15.7601 0 11.5164 1.65177 8.27464C3.10471 5.4231 5.4231 3.10471 8.27464 1.65177C11.5164 0 15.7601 0 24.2475 0H42.7525C51.2399 0 55.4837 0 58.7253 1.65177C61.5768 3.10471 63.8953 5.4231 65.3482 8.27464C67 11.5164 67 15.7601 67 24.2475V42.7525C67 51.2399 67 55.4837 65.3482 58.7253C63.8953 61.5768 61.5768 63.8953 58.7253 65.3482C55.4837 67 51.2399 67 42.7525 67H24.2475C15.7601 67 11.5164 67 8.27464 65.3482C5.4231 63.8953 3.10471 61.5768 1.65177 58.7253C0 55.4837 0 51.2399 0 42.7525V24.2475Z" fill="#330000"/>
<path d="M32.4677 42.1054H22.0853L19.9729 48.8358C19.9143 49.0859 19.6841 49.263 19.4336 49.2505H14.1749C13.875 49.2505 13.7701 49.0816 13.8603 48.7435L22.8494 22.1909C22.9394 21.9143 23.0293 21.5994 23.1191 21.2459C23.2368 20.6307 23.2969 20.0057 23.299 19.379C23.2732 19.1938 23.4359 19.0303 23.6134 19.0562H30.7599C30.9693 19.0562 31.089 19.1331 31.1193 19.2867L41.3222 48.7896C41.412 49.0971 41.3222 49.2507 41.0526 49.2505H35.2094C35.0046 49.274 34.8089 49.1335 34.7601 48.928L32.4677 42.1054ZM23.7034 36.297H30.8049C29.6382 32.31 28.3214 28.3755 27.2542 24.3576C26.1027 28.3824 24.8465 32.3909 23.7034 36.297Z" fill="#FF9A00"/>
<path d="M47.3895 23.9425C46.931 23.9614 46.474 23.8807 46.0478 23.706C45.6219 23.5314 45.2367 23.2662 44.9175 22.9284C44.5992 22.5757 44.3518 22.1622 44.1898 21.7111C44.0278 21.2603 43.9543 20.781 43.9735 20.3008C43.9572 19.8253 44.0388 19.3518 44.213 18.9109C44.3874 18.47 44.6504 18.0718 44.9849 17.7423C45.3161 17.4162 45.7071 17.1606 46.1354 16.9905C46.5635 16.8204 47.0203 16.7391 47.4792 16.7512C48.5582 16.7512 49.4045 17.0816 50.0188 17.7423C50.3289 18.0856 50.5699 18.4884 50.728 18.9274C50.886 19.3664 50.9582 19.8332 50.94 20.3008C50.9589 20.7827 50.8831 21.2639 50.717 21.7152C50.5512 22.1665 50.2983 22.579 49.9738 22.9284C49.6347 23.2713 49.2299 23.5383 48.7853 23.713C48.3404 23.8874 47.8652 23.9657 47.3895 23.9425ZM44.2881 48.7894V26.7545C44.2881 26.4779 44.4075 26.3396 44.6478 26.3396H50.1762C50.4155 26.3396 50.5354 26.4779 50.5356 26.7545V48.7894C50.5356 49.0971 50.4158 49.2507 50.1762 49.2505H44.6928C44.4231 49.2505 44.2881 49.0969 44.2881 48.7894Z" fill="#FF9A00"/>
</svg>
