<svg width="67" height="67" viewBox="0 0 67 67" fill="none" xmlns="http://www.w3.org/2000/svg">
<path d="M0 0H67V67H0V0Z" fill="#F7DF1E"/>
<path d="M17.6168 55.99L22.7439 52.8871C23.7332 54.6409 24.633 56.1248 26.7914 56.1248C28.8603 56.1248 30.1649 55.3156 30.1649 52.1676V30.7595H36.4611V52.2566C36.4611 58.7778 32.6384 61.7463 27.0612 61.7463C22.0244 61.7463 19.1008 59.1377 17.6166 55.9895M39.881 55.3153L45.0075 52.3471C46.3572 54.5511 48.1113 56.1701 51.2142 56.1701C53.8233 56.1701 55.4868 54.8657 55.4868 53.0666C55.4868 50.908 53.7777 50.1432 50.8994 48.8843L49.3256 48.2091C44.783 46.2758 41.7698 43.847 41.7698 38.72C41.7698 33.9975 45.3677 30.3994 50.9896 30.3994C54.9924 30.3994 57.8708 31.7939 59.9394 35.4367L55.0369 38.5852C53.9573 36.6513 52.7884 35.8869 50.9894 35.8869C49.1453 35.8869 47.976 37.0562 47.976 38.5852C47.976 40.474 49.1453 41.239 51.8436 42.4084L53.4176 43.0828C58.7698 45.3768 61.7829 47.7153 61.7829 52.9768C61.7829 58.6441 57.3306 61.747 51.349 61.747C45.5024 61.747 41.7245 58.9587 39.8807 55.3156" fill="black"/>
</svg>
