<svg width="65" height="67" viewBox="0 0 65 67" fill="none" xmlns="http://www.w3.org/2000/svg">
<path d="M64.9331 15.1307C64.9571 15.2199 64.9697 15.3118 64.9697 15.4042V29.7605C64.9697 30.1356 64.7691 30.482 64.4437 30.6686L52.3942 37.6059V51.3564C52.3942 51.7306 52.1953 52.0761 51.8708 52.2645L26.7185 66.7438C26.6609 66.7765 26.5981 66.7974 26.5353 66.8197C26.5118 66.8275 26.4895 66.8419 26.4647 66.8485C26.2889 66.8948 26.104 66.8948 25.9282 66.8485C25.8994 66.8406 25.8733 66.8249 25.8458 66.8144C25.7882 66.7935 25.728 66.7752 25.6731 66.7438L0.525996 52.2645C0.200841 52.0777 0 51.7314 0 51.3564V8.28754C0 8.19334 0.0130845 8.10174 0.0366366 8.01277C0.0444872 7.98267 0.0628055 7.9552 0.0732731 7.9251C0.0928998 7.87015 0.111218 7.81389 0.140004 7.76286C0.159631 7.72884 0.188417 7.70136 0.211969 7.66996C0.242063 7.62809 0.26954 7.58491 0.304868 7.54827C0.334963 7.51818 0.374216 7.49593 0.408236 7.46976C0.446181 7.43836 0.480201 7.40434 0.523379 7.37948H0.524688L13.0989 0.139835C13.4229 -0.0466118 13.8216 -0.0466118 14.1456 0.139835L26.7198 7.37948H26.7224C26.7643 7.40565 26.7996 7.43836 26.8376 7.46845C26.8716 7.49462 26.9095 7.51818 26.9396 7.54696C26.9763 7.58491 27.0024 7.62809 27.0339 7.66996C27.0561 7.70136 27.0862 7.72884 27.1045 7.76286C27.1346 7.81519 27.1516 7.87015 27.1725 7.9251C27.183 7.9552 27.2013 7.98267 27.2092 8.01408C27.2333 8.10324 27.2456 8.19518 27.2458 8.28754V35.1879L37.7239 29.1547V15.4029C37.7239 15.3113 37.737 15.2184 37.7605 15.1307C37.7697 15.0993 37.7867 15.0718 37.7971 15.0418C37.8181 14.9868 37.8364 14.9305 37.8652 14.8795C37.8848 14.8455 37.9136 14.818 37.9358 14.7866C37.9672 14.7447 37.9934 14.7016 38.0301 14.6649C38.0601 14.6348 38.0981 14.6126 38.1321 14.5864C38.1714 14.555 38.2054 14.521 38.2473 14.4961H38.2486L50.8241 7.25649C51.148 7.06977 51.5469 7.06977 51.8708 7.25649L64.445 14.4961C64.4895 14.5223 64.5235 14.555 64.5628 14.5851C64.5955 14.6113 64.6334 14.6348 64.6635 14.6636C64.7002 14.7016 64.7263 14.7447 64.7577 14.7866C64.7813 14.818 64.8101 14.8455 64.8284 14.8795C64.8585 14.9305 64.8755 14.9868 64.8964 15.0418C64.9082 15.0718 64.9252 15.0993 64.9331 15.1307ZM62.8736 29.1547V17.2164L58.4733 19.7496L52.3942 23.2497V35.1879L62.8749 29.1547H62.8736ZM50.2994 50.7506V38.8045L44.3198 42.2195L27.2445 51.9649V64.0235L50.2994 50.7506ZM2.09613 10.0997V50.7506L25.1484 64.0222V51.9662L13.1054 45.1505L13.1015 45.1478L13.0963 45.1452C13.0557 45.1217 13.0217 45.0877 12.9837 45.0589C12.951 45.0327 12.9131 45.0118 12.8843 44.983L12.8817 44.9791C12.8477 44.9463 12.8241 44.9058 12.7953 44.8691C12.7691 44.8338 12.7377 44.8037 12.7168 44.7671L12.7155 44.7632C12.6919 44.7239 12.6776 44.6768 12.6605 44.6323C12.6435 44.5931 12.6213 44.5564 12.6108 44.5146V44.5132C12.5977 44.4635 12.5951 44.4112 12.5899 44.3602C12.5847 44.3209 12.5742 44.2817 12.5742 44.2424V44.2398V16.133L6.49645 12.6316L2.09613 10.1011V10.0997ZM13.6236 2.2569L3.14682 8.28754L13.6209 14.3182L24.0964 8.28623L13.6209 2.2569H13.6236ZM19.0719 39.8931L25.1497 36.3943V10.0997L20.7494 12.6329L14.6703 16.133V42.4276L19.0719 39.8931ZM51.3474 9.37356L40.872 15.4042L51.3474 21.4348L61.8216 15.4029L51.3474 9.37356ZM50.2994 23.2497L44.2203 19.7496L39.82 17.2164V29.1547L45.8978 32.6535L50.2994 35.1879V23.2497ZM26.1951 50.1527L41.5602 41.3808L49.2408 36.9975L38.7733 30.9708L26.7211 37.9095L15.7367 44.2332L26.1951 50.1527Z" fill="#FF2D20"/>
</svg>
