<svg width="63" height="67" viewBox="0 0 63 67" fill="none" xmlns="http://www.w3.org/2000/svg">
<path d="M15.0128 50.9301H12.6033C12.5181 46.8631 12.2835 43.0396 11.8998 39.4568H11.8784L8.20993 50.9301H6.37547L2.72888 39.4568H2.70793C2.43742 42.8966 2.26701 46.7211 2.19624 50.9301H0C0.141543 45.8117 0.497261 41.0133 1.06576 36.5342H4.05212L7.52783 47.1122H7.54925L11.0464 36.5342H13.9038C14.5295 41.7806 14.8992 46.5795 15.0128 50.9301ZM25.4623 40.3088C24.4813 45.6325 23.1869 49.5007 21.5806 51.9153C20.329 53.774 18.9579 54.7042 17.4647 54.7042C17.0666 54.7042 16.5754 54.5841 15.9934 54.3457V53.0621C16.2779 53.103 16.6117 53.1263 16.9953 53.1263C17.6928 53.1263 18.2534 52.9345 18.6808 52.5499C19.1921 52.0815 19.4477 51.5549 19.4477 50.9725C19.4477 50.573 19.2484 49.7563 18.8508 48.5197L16.2066 40.3083H18.5737L20.4715 46.4496C20.898 47.8441 21.0759 48.8177 21.0046 49.3722C22.0425 46.6005 22.7674 43.5782 23.1804 40.3079L25.4623 40.3088Z" fill="#5D87A1"/>
<path d="M57.5352 50.93H50.6909V36.5341H52.9933V49.1579H57.5352V50.93ZM48.8993 51.2778L46.2528 49.9718C46.4875 49.7791 46.7119 49.5705 46.9139 49.3288C48.0388 48.0074 48.5999 46.0533 48.5999 43.4651C48.5999 38.7024 46.731 36.3199 42.9917 36.3199C41.1582 36.3199 39.7279 36.9243 38.7049 38.1335C37.581 39.4558 37.0199 41.4029 37.0199 43.9772C37.0199 46.5077 37.5172 48.3641 38.5122 49.5416C39.4224 50.6083 40.7946 51.1423 42.6295 51.1423C43.3139 51.1423 43.942 51.0585 44.5142 50.8895L47.9597 52.8953L48.8993 51.2778ZM40.3262 48.0494C39.7432 47.1116 39.4518 45.6059 39.4518 43.5298C39.4518 39.9051 40.5529 38.0906 42.7575 38.0906C43.9099 38.0906 44.7545 38.5246 45.2946 39.3906C45.8766 40.3297 46.1694 41.8219 46.1694 43.8692C46.1694 47.5237 45.0674 49.3512 42.8642 49.3512C41.7113 49.3516 40.8667 48.9191 40.3262 48.0494ZM36.0166 46.9398C36.0166 48.1606 35.5687 49.1621 34.6738 49.9467C33.778 50.728 32.5767 51.1195 31.0714 51.1195C29.6634 51.1195 28.2983 50.6698 26.9769 49.7749L27.5957 48.5387C28.7327 49.1081 29.7622 49.3912 30.6864 49.3912C31.5538 49.3912 32.2317 49.1989 32.7234 48.8176C33.2146 48.4349 33.5074 47.898 33.5074 47.2192C33.5074 46.3639 32.911 45.6329 31.8168 45.0206C30.8079 44.4666 28.79 43.3081 28.79 43.3081C27.6963 42.511 27.1487 41.6553 27.1487 40.2454C27.1487 39.0786 27.5571 38.1367 28.3742 37.4202C29.1923 36.7008 30.2478 36.3423 31.5417 36.3423C32.878 36.3423 34.0927 36.7003 35.1869 37.409L34.6319 38.6456C33.696 38.248 32.7723 38.0492 31.8611 38.0492C31.1231 38.0492 30.5532 38.2266 30.157 38.5828C29.7575 38.9376 29.5112 39.3915 29.5112 39.9484C29.5112 40.7995 30.1202 41.5398 31.2442 42.1642C32.2666 42.7192 34.3348 43.8976 34.3348 43.8976C35.4564 44.6933 36.0166 45.5412 36.0166 46.9398Z" fill="#F8981D"/>
<path d="M60.4256 31.7123C59.0335 31.6769 57.9556 31.817 57.0509 32.1997C56.7897 32.304 56.3744 32.304 56.3381 32.6342C56.4792 32.7738 56.4955 32.9992 56.6179 33.1919C56.8265 33.5397 57.1902 34.0077 57.5221 34.2516C57.8867 34.531 58.2527 34.8076 58.6363 35.0511C59.3128 35.4697 60.0797 35.7132 60.739 36.1303C61.1231 36.3729 61.5049 36.6867 61.8895 36.9479C62.0785 37.0872 62.1996 37.313 62.4449 37.4V37.347C62.322 37.1905 62.2871 36.9642 62.1665 36.7901L61.6441 36.2863C61.1394 35.6084 60.5122 35.0166 59.8357 34.5305C59.2788 34.1469 58.0608 33.6254 57.835 32.9838L57.7996 32.9484C58.1824 32.9126 58.6363 32.7738 59 32.6672C59.5917 32.5112 60.1314 32.5466 60.7385 32.3906C61.0179 32.3208 61.2949 32.2333 61.5752 32.1471V31.9902C61.2604 31.6769 61.036 31.2606 60.705 30.9645C59.8194 30.1995 58.8435 29.4513 57.835 28.8251C57.2949 28.4763 56.6003 28.2519 56.0252 27.9553C55.818 27.8506 55.4688 27.7989 55.3469 27.6248C55.0349 27.242 54.8594 26.7383 54.6331 26.2852C54.1302 25.3293 53.6418 24.2687 53.2079 23.2579C52.8941 22.58 52.7032 21.903 52.3204 21.2758C50.5279 18.3193 48.5812 16.5286 45.5893 14.7709C44.9463 14.405 44.1813 14.249 43.3642 14.0572L42.0591 13.9882C41.7806 13.8663 41.5018 13.5352 41.2587 13.3788C40.2661 12.753 37.7104 11.3967 36.9803 13.1874C36.5101 14.3193 37.6759 15.4321 38.0763 16.0062C38.372 16.4047 38.7552 16.8582 38.9619 17.3108C39.0844 17.6064 39.1188 17.9202 39.2413 18.2327C39.5197 18.9981 39.78 19.8497 40.1459 20.5639C40.3368 20.928 40.5449 21.3107 40.7889 21.6404C40.9286 21.8331 41.1716 21.9184 41.2247 22.2326C40.9821 22.579 40.9631 23.1019 40.8238 23.5368C40.1981 25.5021 40.4425 27.9367 41.3295 29.381C41.607 29.8159 42.2691 30.7731 43.1546 30.4062C43.9387 30.0934 43.765 29.1021 43.9904 28.2328C44.0421 28.0228 44.0081 27.885 44.1124 27.7472V27.7812C44.355 28.2677 44.5999 28.7366 44.8247 29.2246C45.3644 30.0761 46.304 30.9636 47.0866 31.5535C47.5033 31.8682 47.8335 32.4065 48.3554 32.5988V32.5466H48.3209C48.2153 32.3906 48.0607 32.3208 47.9219 32.1997C47.6081 31.8864 47.2608 31.5037 47.0173 31.1563C46.2881 30.1818 45.6428 29.103 45.0701 27.9898C44.7898 27.4497 44.5482 26.8593 44.3224 26.3201C44.2171 26.112 44.2171 25.7982 44.0425 25.6934C43.7809 26.0757 43.3995 26.4067 43.2086 26.8751C42.8776 27.6243 42.8432 28.5457 42.7202 29.5039L42.6518 29.5374C42.0977 29.3982 41.905 28.8251 41.6945 28.3385C41.1735 27.1028 41.086 25.1194 41.5381 23.6937C41.6591 23.3291 42.1829 22.181 41.9739 21.8336C41.8691 21.5007 41.5208 21.3112 41.3299 21.0491C41.1055 20.7194 40.8597 20.3023 40.7033 19.9363C40.2861 18.9627 40.0761 17.8839 39.6268 16.9108C39.4168 16.4573 39.0522 15.988 38.757 15.5704C38.4255 15.101 38.061 14.7705 37.7988 14.2141C37.7122 14.0227 37.5907 13.7098 37.7299 13.5017C37.7639 13.362 37.8347 13.3099 37.9734 13.2749C38.1988 13.0845 38.8427 13.3266 39.0685 13.4314C39.7134 13.6921 40.2525 13.9356 40.7908 14.3007C41.0343 14.4753 41.2955 14.8058 41.6079 14.8929H41.9739C42.5293 15.014 43.1556 14.9264 43.6784 15.0838C44.5999 15.3799 45.4347 15.8143 46.1834 16.2832C48.4616 17.7279 50.3402 19.7808 51.6085 22.2326C51.8167 22.6321 51.9051 22.9981 52.0951 23.4148C52.4615 24.2678 52.9146 25.1375 53.2782 25.9723C53.6437 26.7895 53.992 27.6238 54.5139 28.3027C54.7742 28.6677 55.8199 28.8591 56.2888 29.0504C56.6356 29.2064 57.1757 29.3451 57.4886 29.5365C58.0804 29.9011 58.6698 30.3197 59.2262 30.7205C59.5033 30.9291 60.3739 31.364 60.4256 31.7123ZM42.6834 16.597C42.4433 16.5945 42.2039 16.6239 41.9715 16.6845V16.7195H42.0051C42.1452 16.9974 42.3887 17.1902 42.5624 17.4328C42.7025 17.7117 42.8241 17.9882 42.9614 18.2666L42.9949 18.2322C43.2403 18.0585 43.3623 17.7801 43.3623 17.3625C43.2566 17.2395 43.2403 17.1194 43.1523 16.9974C43.0499 16.8233 42.8241 16.7367 42.6834 16.597Z" fill="#5D87A1"/>
<path d="M62.0822 50.9277H62.4426V49.164H61.902L61.4611 50.3676L60.982 49.164H60.4615V50.9277H60.8018V49.5859H60.8209L61.3228 50.9277H61.5822L62.0822 49.5859V50.9277ZM59.1792 50.9277H59.5605V49.463H60.0596V49.1636H58.6591V49.463H59.1783L59.1792 50.9277Z" fill="#F8981D"/>
</svg>
