<svg width="67" height="67" viewBox="0 0 67 67" fill="none" xmlns="http://www.w3.org/2000/svg">
<path d="M0 24.2475C0 15.7601 0 11.5164 1.65177 8.27464C3.10471 5.4231 5.4231 3.10471 8.27464 1.65177C11.5164 0 15.7601 0 24.2475 0H42.7525C51.2399 0 55.4837 0 58.7253 1.65177C61.5768 3.10471 63.8953 5.4231 65.3482 8.27464C67 11.5164 67 15.7601 67 24.2475V42.7525C67 51.2399 67 55.4837 65.3482 58.7253C63.8953 61.5768 61.5768 63.8953 58.7253 65.3482C55.4837 67 51.2399 67 42.7525 67H24.2475C15.7601 67 11.5164 67 8.27464 65.3482C5.4231 63.8953 3.10471 61.5768 1.65177 58.7253C0 55.4837 0 51.2399 0 42.7525V24.2475Z" fill="#001E36"/>
<path d="M14.3571 49.0923V19.6296C14.3571 19.4293 14.4409 19.3147 14.6363 19.3147C17.5212 19.3147 20.4049 19.1429 23.2904 19.1429C27.973 19.1429 33.043 20.7439 34.8201 25.6423C35.2389 26.845 35.4621 28.0761 35.4621 29.3647C35.4621 31.8272 34.9039 33.8599 33.7871 35.4633C30.6678 39.9423 25.2614 39.8727 20.4151 39.8727V49.0639C20.4529 49.3359 20.2211 49.4647 19.9964 49.4647H14.6921C14.4688 49.4647 14.3571 49.35 14.3571 49.0923ZM20.4429 24.8407V34.4612C22.3646 34.6019 24.3753 34.6172 26.2216 34.0032C28.2601 33.4151 29.3764 31.6508 29.3764 29.5365C29.4329 27.7349 28.4513 26.0063 26.7801 25.3561C24.9561 24.5976 22.412 24.5521 20.4429 24.8407Z" fill="#31A8FF"/>
<path d="M52.8742 32.5606C52.0296 32.1153 51.1299 31.7896 50.1997 31.5924C49.0048 31.3112 44.2913 30.3264 44.2894 32.791C44.3313 34.1669 46.5155 34.841 47.4805 35.2341C50.8686 36.3973 54.7024 38.4764 54.627 42.656C54.7306 47.8591 49.6894 49.9392 45.3681 49.9396C43.1186 49.9629 40.775 49.6145 38.7162 48.6487C38.5195 48.5446 38.3932 48.3223 38.4015 48.0955V43.1169C38.3793 42.9173 38.5937 42.7429 38.7612 42.8865C40.7784 44.1063 43.1693 44.6988 45.503 44.7304C46.5332 44.7304 48.5748 44.6306 48.5594 43.1169C48.5594 41.6644 46.1171 40.9966 45.1434 40.6276C43.7321 40.1239 42.394 39.4259 41.1658 38.5532C39.4491 37.3288 38.3723 35.3657 38.4015 33.2059C38.3915 28.3068 43.0319 26.1077 47.2111 26.1068C49.1646 26.0905 51.2627 26.2353 53.0812 27.0288C53.3428 27.1056 53.3968 27.3812 53.3959 27.6279V32.2839C53.4124 32.573 53.0915 32.6714 52.8742 32.5606Z" fill="#31A8FF"/>
</svg>
