<svg width="67" height="67" viewBox="0 0 67 67" fill="none" xmlns="http://www.w3.org/2000/svg">
<path d="M55.0874 23.0155C54.3924 22.7763 53.6722 22.5499 52.9306 22.3358C53.0525 21.8384 53.1644 21.3474 53.2639 20.8648C54.8965 12.9396 53.829 6.55511 50.1839 4.45305C46.6886 2.43745 40.9724 4.53903 35.1993 9.56318C34.6442 10.0463 34.0875 10.5578 33.531 11.0939C33.1602 10.7392 32.7901 10.3964 32.4208 10.0686C26.3705 4.69646 20.3059 2.43256 16.6643 4.5407C13.1724 6.56214 12.1383 12.5642 13.6079 20.0749C13.7499 20.8004 13.9157 21.5412 14.1033 22.2944C13.245 22.5381 12.4164 22.7978 11.6236 23.0742C4.53018 25.5472 0 29.4232 0 33.4435C0 37.5957 4.86315 41.7605 12.2515 44.2858C12.8345 44.4851 13.4395 44.6735 14.063 44.8524C13.8607 45.6671 13.6846 46.4654 13.5369 47.244C12.1356 54.6244 13.2299 60.4847 16.7125 62.4933C20.3097 64.5677 26.3468 62.4355 32.2255 57.2969C32.6901 56.8907 33.1564 56.4599 33.6236 56.0084C34.229 56.5915 34.8336 57.1433 35.4349 57.6608C41.129 62.5608 46.7529 64.5395 50.2323 62.5252C53.8259 60.4448 54.9938 54.1495 53.4776 46.4902C53.3618 45.9052 53.227 45.3076 53.0757 44.6994C53.4996 44.5741 53.9158 44.4447 54.3217 44.3102C62.0026 41.7653 67 37.6512 67 33.4435C67 29.4086 62.3237 25.5066 55.0874 23.0155ZM53.4215 41.5933C53.0552 41.7146 52.6792 41.8318 52.2962 41.9455C51.4483 39.2611 50.3038 36.4066 48.9034 33.4575C50.2398 30.5785 51.34 27.7606 52.1642 25.0936C52.8496 25.2919 53.5148 25.5011 54.1558 25.7218C60.3558 27.8562 64.1378 31.0119 64.1378 33.4435C64.1378 36.0336 60.0534 39.3958 53.4215 41.5933ZM50.6697 47.0461C51.3402 50.4329 51.436 53.495 50.9919 55.8888C50.5928 58.0397 49.7903 59.4738 48.7981 60.0482C46.6866 61.2703 42.1712 59.6817 37.3015 55.4912C36.7433 55.0108 36.1809 54.4979 35.6168 53.955C37.5047 51.8903 39.3915 49.4899 41.233 46.8241C44.472 46.5367 47.532 46.0668 50.3071 45.4253C50.4437 45.9767 50.5651 46.5174 50.6697 47.0461ZM22.8418 59.837C20.7789 60.5655 19.1358 60.5864 18.1426 60.0137C16.0293 58.7948 15.1507 54.0895 16.3491 47.7778C16.4864 47.055 16.6498 46.3125 16.8381 45.5535C19.5827 46.1605 22.6204 46.5972 25.8671 46.8604C27.7209 49.4689 29.6622 51.8666 31.6186 53.9661C31.1911 54.3787 30.7654 54.7716 30.342 55.1417C27.7425 57.414 25.1376 59.0261 22.8418 59.837ZM13.1772 41.5774C9.91019 40.4608 7.21219 39.0096 5.36284 37.4259C3.70109 36.0028 2.8621 34.5899 2.8621 33.4435C2.8621 31.0038 6.49938 27.892 12.5657 25.7769C13.3018 25.5203 14.0723 25.2784 14.872 25.0512C15.7104 27.7785 16.8102 30.6298 18.1374 33.5131C16.793 36.4393 15.6776 39.3361 14.8309 42.0953C14.2609 41.9314 13.7086 41.759 13.1772 41.5774ZM16.4168 19.5252C15.1577 13.0903 15.994 8.23595 18.0983 7.01783C20.3398 5.72018 25.2963 7.57036 30.5203 12.2089C30.8542 12.5054 31.1895 12.8157 31.5257 13.1368C29.579 15.227 27.6555 17.6067 25.818 20.1999C22.667 20.492 19.6507 20.9611 16.8774 21.5894C16.7031 20.888 16.5486 20.1989 16.4168 19.5252ZM45.3176 26.6616C44.6547 25.5165 43.974 24.3984 43.2802 23.3109C45.4179 23.5811 47.4661 23.9399 49.3895 24.3789C48.812 26.2295 48.0923 28.1645 47.2451 30.1481C46.6373 28.9943 45.9945 27.8309 45.3176 26.6616ZM33.532 15.1823C34.8522 16.6126 36.1743 18.2095 37.4747 19.9421C36.1642 19.8802 34.8376 19.848 33.5 19.848C32.175 19.848 30.8582 19.8794 29.5559 19.9403C30.8576 18.2238 32.1911 16.629 33.532 15.1823ZM21.6708 26.6814C21.0086 27.8297 20.3777 28.9868 19.7795 30.146C18.946 28.1693 18.2329 26.2255 17.6505 24.3486C19.5621 23.9208 21.6006 23.571 23.7247 23.3059C23.0211 24.4034 22.3348 25.5299 21.6708 26.6814ZM23.7859 43.7853C21.5913 43.5404 19.5221 43.2087 17.611 42.7927C18.2028 40.8823 18.9315 38.897 19.7827 36.8777C20.3825 38.036 21.0158 39.1936 21.6821 40.3444C22.3608 41.5169 23.0641 42.6653 23.7859 43.7853ZM33.6112 51.9065C32.2546 50.4428 30.9015 48.8237 29.58 47.0822C30.8628 47.1325 32.1707 47.1583 33.5 47.1583C34.8656 47.1583 36.2156 47.1275 37.5444 47.0684C36.2397 48.8413 34.9224 50.4628 33.6112 51.9065ZM47.2724 36.7748C48.1679 38.8159 48.9228 40.7908 49.5222 42.6687C47.5796 43.1118 45.4822 43.4688 43.2723 43.734C43.9678 42.6318 44.6544 41.4946 45.3291 40.3247C46.0116 39.1412 46.6596 37.9559 47.2724 36.7748ZM42.8498 38.8948C41.8025 40.7108 40.7272 42.4443 39.6356 44.0807C37.6475 44.2229 35.5935 44.2961 33.5 44.2961C31.415 44.2961 29.3869 44.2313 27.4339 44.1045C26.2983 42.4467 25.1997 40.7081 24.159 38.9105C23.1211 37.1178 22.1661 35.3099 21.3005 33.5122C22.1659 31.7103 23.1186 29.9004 24.1506 28.111L24.1503 28.1113C25.185 26.3171 26.274 24.5868 27.3991 22.9394C29.3916 22.7888 31.4349 22.7102 33.4999 22.7102C35.5742 22.7102 37.6202 22.7894 39.6121 22.9413C40.7201 24.5767 41.8016 26.3013 42.8404 28.0958C43.8909 29.9104 44.856 31.7083 45.7287 33.4715C44.8586 35.2651 43.8957 37.081 42.8498 38.8948ZM48.7542 6.93268C50.9978 8.22652 51.8703 13.4446 50.4607 20.2871C50.3707 20.7237 50.2695 21.1684 50.1595 21.6191C47.3799 20.9777 44.3614 20.5004 41.2012 20.204C39.3602 17.5823 37.4524 15.1989 35.5374 13.1355C36.0523 12.6402 36.5664 12.1679 37.0784 11.7222C42.0248 7.41759 46.6478 5.71803 48.7542 6.93268ZM33.5 27.4606C36.8042 27.4606 39.4829 30.1392 39.4829 33.4435C39.4829 36.7477 36.8042 39.4264 33.5 39.4264C30.1958 39.4264 27.5171 36.7477 27.5171 33.4435C27.5171 30.1392 30.1958 27.4606 33.5 27.4606Z" fill="#00D8FF"/>
</svg>
