<svg width="67" height="67" viewBox="0 0 67 67" fill="none" xmlns="http://www.w3.org/2000/svg">
<path fill-rule="evenodd" clip-rule="evenodd" d="M33.5 13.5206C24.5655 13.5206 18.9844 17.9594 16.75 26.8402C20.1 22.4015 24.0094 20.7365 28.475 21.8454C31.0243 22.4785 32.8467 24.3177 34.8601 26.3511C38.1464 29.6643 41.9487 33.5 50.25 33.5C59.1844 33.5 64.7655 29.0613 67 20.1804C63.65 24.6192 59.7439 26.2841 55.275 25.1753C52.7256 24.5421 50.9032 22.703 48.8865 20.6695C45.6036 17.353 41.8046 13.5206 33.5 13.5206ZM16.75 33.5C7.81555 33.5 2.23445 37.9388 0 46.8196C3.35 42.3775 7.25945 40.7159 11.725 41.8248C14.2743 42.4579 16.0967 44.2971 18.1134 46.3305C21.3964 49.6437 25.1987 53.4794 33.5034 53.4794C42.4378 53.4794 48.0189 49.0407 50.2533 40.1598C46.9033 44.5986 42.9939 46.2635 38.5284 45.1547C35.979 44.5215 34.1566 42.6824 32.1432 40.6489C28.8536 37.3358 25.0513 33.5 16.75 33.5Z" fill="#38B8F0"/>
</svg>
