<svg width="702" height="267" viewBox="0 0 702 267" fill="none" xmlns="http://www.w3.org/2000/svg">
<path d="M40.532 42.104H74.336C91.508 42.104 100.148 49.232 100.148 63.38C100.148 67.916 98.852 71.804 96.476 75.26C94.1 78.716 90.86 80.984 86.972 82.064C89.564 82.712 91.616 83.468 93.236 84.548C94.748 85.628 95.936 87.14 96.692 89.084C97.34 91.028 97.88 92.756 98.096 94.268C98.312 95.78 98.42 98.048 98.636 100.964C98.636 101.288 98.636 102.044 98.744 103.124C98.744 104.204 98.852 104.96 98.852 105.392C98.852 105.824 98.852 106.472 98.96 107.444C99.068 108.524 99.176 109.28 99.284 109.712C99.284 110.252 99.392 110.9 99.608 111.764C99.716 112.628 99.932 113.384 100.148 113.924C100.364 114.464 100.58 115.112 100.904 115.76C101.12 116.408 101.444 117.056 101.876 117.596C102.2 118.136 102.632 118.568 103.064 119H91.4C90.86 118.352 90.428 117.38 90.104 116.3C89.78 115.22 89.564 114.032 89.456 112.52C89.24 111.008 89.132 109.82 89.132 108.956C89.024 108.092 88.916 106.688 88.916 104.96C88.808 103.232 88.808 102.26 88.808 102.044C88.376 95.564 87.08 91.136 84.704 88.976C82.328 86.816 77.792 85.736 70.88 85.736H50.684V119H40.532V42.104ZM50.684 50.744V77.636H69.8C72.176 77.636 74.12 77.636 75.74 77.42C77.36 77.312 79.196 76.988 81.14 76.448C83.084 76.016 84.596 75.26 85.784 74.288C86.972 73.424 87.944 72.02 88.808 70.292C89.564 68.564 89.996 66.512 89.996 64.028C89.996 58.844 88.376 55.388 85.244 53.552C82.112 51.716 77.9 50.744 72.5 50.744H50.684ZM162.202 111.656V118.892C160.258 119.54 158.206 119.972 155.938 119.972C150.646 119.972 147.946 117.164 147.838 111.764C142.546 117.596 135.85 120.62 127.642 120.62C122.134 120.62 117.814 119.216 114.574 116.408C111.334 113.6 109.822 109.712 109.822 104.852C109.822 94.916 116.41 89.084 129.586 87.464C130.45 87.248 131.638 87.14 133.366 87.032C139.63 86.276 143.41 85.412 144.922 84.548C146.542 83.36 147.406 81.416 147.406 78.608C147.406 72.452 143.194 69.428 134.77 69.428C130.45 69.428 127.102 70.292 124.942 72.02C122.674 73.748 121.378 76.664 120.946 80.768H111.982C112.09 74.72 114.25 70.076 118.354 66.836C122.458 63.488 128.074 61.868 135.31 61.868C143.086 61.868 148.918 63.596 152.806 67.268C153.994 68.348 154.858 69.86 155.506 71.804C156.046 73.64 156.37 75.152 156.478 76.34C156.478 77.528 156.586 79.364 156.586 81.74C156.586 84.44 156.478 88.544 156.37 94.052C156.154 99.668 156.154 103.772 156.154 106.472C156.154 108.524 156.37 109.928 156.91 110.792C157.45 111.656 158.422 111.98 159.934 111.98C160.474 111.98 161.23 111.872 162.202 111.656ZM147.406 90.164C146.758 90.596 146.002 91.028 145.354 91.46C144.598 91.784 143.626 92.108 142.546 92.324C141.466 92.54 140.71 92.648 140.278 92.756C139.846 92.864 138.982 92.972 137.47 93.188C135.958 93.404 135.094 93.512 135.094 93.512C132.826 93.728 131.314 93.944 130.666 94.052C130.018 94.16 128.722 94.484 126.778 95.024C124.834 95.456 123.538 96.104 122.782 96.752C121.918 97.4 121.162 98.264 120.406 99.56C119.65 100.856 119.326 102.368 119.326 104.096C119.326 106.904 120.298 109.172 122.242 110.9C124.186 112.52 126.994 113.384 130.45 113.384C134.77 113.384 138.766 112.088 142.222 109.496C145.678 106.904 147.406 103.772 147.406 100.316V90.164ZM221.073 42.104V119H212.433V110.792C208.869 117.272 202.713 120.512 194.073 120.512C186.081 120.512 179.817 117.92 175.173 112.628C170.529 107.336 168.261 100.1 168.261 91.028C168.261 82.604 170.421 75.692 174.741 70.076C179.061 64.46 185.433 61.652 193.641 61.652C201.633 61.652 207.681 64.676 211.893 70.724V42.104H221.073ZM194.829 69.536C189.537 69.536 185.325 71.48 182.301 75.26C179.277 79.148 177.765 84.332 177.765 90.812C177.765 97.616 179.277 103.016 182.409 107.012C185.541 111.008 189.753 112.952 195.045 112.952C200.337 112.952 204.549 111.116 207.573 107.228C210.597 103.34 212.109 98.048 212.109 91.136C212.109 85.088 210.597 79.904 207.789 75.8C204.981 71.696 200.661 69.536 194.829 69.536ZM244.053 42.104V71.156C248.157 65 254.205 61.868 262.305 61.868C274.833 61.868 281.097 68.24 281.097 80.876V119H271.917V83.036C271.917 78.824 270.945 75.584 269.217 73.316C267.489 71.048 264.249 69.86 259.713 69.86C254.097 69.86 249.993 71.696 247.617 75.26C245.241 78.932 244.053 84.008 244.053 90.704V119H234.873V42.104H244.053ZM304.605 42.104V53.336H295.317V42.104H304.605ZM304.605 63.272V119H295.317V63.272H304.605ZM342.694 63.272V70.832H331.57V103.34C331.57 105.176 331.57 106.364 331.57 106.904C331.57 107.552 331.786 108.308 332.218 109.28C332.542 110.252 333.19 110.9 334.054 111.116C334.918 111.44 336.106 111.548 337.726 111.548C339.022 111.548 340.75 111.44 342.694 111.224V119.108C340.102 119.432 337.726 119.54 335.674 119.54C333.082 119.54 330.922 119.324 329.194 118.676C327.466 118.136 326.062 117.488 325.198 116.732C324.334 116.084 323.686 114.788 323.254 112.952C322.822 111.116 322.498 109.604 322.498 108.308C322.39 107.012 322.39 104.96 322.39 101.936V101.504V100.964V100.424V70.832H312.994V63.272H322.39V46.748H331.57V63.272H342.694ZM399.008 63.272L375.14 126.128C374.168 128.72 373.304 130.664 372.656 132.068C372.008 133.472 371.036 134.984 369.74 136.712C368.444 138.44 366.932 139.628 365.204 140.384C363.476 141.14 361.424 141.464 359.048 141.464C357.212 141.464 354.944 141.14 352.244 140.492V132.284C354.836 133.148 356.888 133.472 358.184 133.472C361.208 133.472 363.368 131.96 364.664 128.828L368.984 118.676L346.844 63.272H357.212L373.736 107.66L389.396 63.272H399.008ZM456.248 111.656V118.892C454.304 119.54 452.252 119.972 449.984 119.972C444.692 119.972 441.992 117.164 441.884 111.764C436.592 117.596 429.896 120.62 421.688 120.62C416.18 120.62 411.86 119.216 408.62 116.408C405.38 113.6 403.868 109.712 403.868 104.852C403.868 94.916 410.456 89.084 423.632 87.464C424.496 87.248 425.684 87.14 427.412 87.032C433.676 86.276 437.456 85.412 438.968 84.548C440.588 83.36 441.452 81.416 441.452 78.608C441.452 72.452 437.24 69.428 428.816 69.428C424.496 69.428 421.148 70.292 418.988 72.02C416.72 73.748 415.424 76.664 414.992 80.768H406.028C406.136 74.72 408.296 70.076 412.4 66.836C416.504 63.488 422.12 61.868 429.356 61.868C437.132 61.868 442.964 63.596 446.852 67.268C448.04 68.348 448.904 69.86 449.552 71.804C450.092 73.64 450.416 75.152 450.524 76.34C450.524 77.528 450.632 79.364 450.632 81.74C450.632 84.44 450.524 88.544 450.416 94.052C450.2 99.668 450.2 103.772 450.2 106.472C450.2 108.524 450.416 109.928 450.956 110.792C451.496 111.656 452.468 111.98 453.98 111.98C454.52 111.98 455.276 111.872 456.248 111.656ZM441.452 90.164C440.804 90.596 440.048 91.028 439.4 91.46C438.644 91.784 437.672 92.108 436.592 92.324C435.512 92.54 434.756 92.648 434.324 92.756C433.892 92.864 433.028 92.972 431.516 93.188C430.004 93.404 429.14 93.512 429.14 93.512C426.872 93.728 425.36 93.944 424.712 94.052C424.064 94.16 422.768 94.484 420.824 95.024C418.88 95.456 417.584 96.104 416.828 96.752C415.964 97.4 415.208 98.264 414.452 99.56C413.696 100.856 413.372 102.368 413.372 104.096C413.372 106.904 414.344 109.172 416.288 110.9C418.232 112.52 421.04 113.384 424.496 113.384C428.816 113.384 432.812 112.088 436.268 109.496C439.724 106.904 441.452 103.772 441.452 100.316V90.164Z" fill="white"/>
<path d="M388.992 150.104H425.388C432.948 150.104 439.212 151.832 444.072 155.288C448.824 158.744 451.308 164.144 451.308 171.488C451.308 176.132 450.12 180.128 447.96 183.368C445.692 186.608 442.56 188.984 438.564 190.388C440.4 190.82 442.02 191.468 443.424 192.332C444.72 193.196 445.8 194.168 446.556 195.14C447.312 196.22 447.96 197.516 448.5 199.028C448.932 200.648 449.256 202.052 449.472 203.24C449.688 204.428 449.796 205.94 450.012 207.884C450.012 208.424 450.12 209.396 450.228 210.8C450.336 212.312 450.444 213.284 450.444 213.716C450.444 214.148 450.552 215.012 450.66 216.092C450.768 217.28 450.876 218.144 450.984 218.576C450.984 219.008 451.092 219.764 451.308 220.628C451.524 221.492 451.632 222.248 451.848 222.68C451.956 223.112 452.172 223.652 452.388 224.3C452.604 224.948 452.82 225.38 453.144 225.812C453.36 226.244 453.684 226.676 454.116 227H439.644C439.428 226.784 439.212 226.46 438.996 226.028C438.78 225.596 438.672 225.164 438.564 224.732C438.348 224.3 438.24 223.868 438.24 223.436C438.132 223.004 438.024 222.464 437.916 221.816C437.808 221.168 437.808 220.52 437.808 220.088L437.592 218.144L437.376 216.2C437.376 215.768 437.268 215.012 437.268 213.932C437.16 212.852 437.16 212.096 437.16 211.664C436.728 205.4 435.432 201.188 433.164 198.812C430.896 196.436 426.576 195.248 420.312 195.248H402.384V227H388.992V150.104ZM402.384 161.12V185.204H420.204C422.796 185.204 424.956 185.096 426.792 184.772C428.52 184.556 430.356 184.016 432.192 183.26C434.028 182.504 435.432 181.208 436.404 179.48C437.376 177.752 437.916 175.592 437.916 172.892C437.916 170.516 437.484 168.464 436.62 166.844C435.756 165.224 434.46 164.036 432.84 163.172C431.22 162.416 429.6 161.876 427.872 161.552C426.144 161.336 424.2 161.12 421.932 161.12H402.384ZM462.983 188.444C464.279 175.916 472.379 169.544 487.391 169.544C494.303 169.544 499.919 170.948 504.023 173.648C508.127 176.456 510.287 180.668 510.287 186.392V214.688C510.287 216.308 510.395 217.388 510.827 217.928C511.259 218.576 512.015 218.792 513.203 218.792C514.067 218.792 514.931 218.792 516.011 218.576V227.216C512.771 228.08 510.179 228.404 508.019 228.404C502.727 228.404 499.703 226.244 498.947 221.708C494.195 226.244 487.715 228.404 479.399 228.404C473.567 228.404 469.031 227 465.683 223.976C462.227 220.952 460.607 216.956 460.607 211.772C460.607 210.26 460.715 208.748 461.147 207.344C461.471 206.048 461.903 204.86 462.335 203.78C462.767 202.808 463.523 201.836 464.603 200.972C465.683 200.108 466.547 199.46 467.195 198.812C467.843 198.272 469.031 197.732 470.543 197.192C472.055 196.76 473.243 196.328 473.999 196.112C474.755 195.896 476.051 195.572 477.995 195.248C479.831 195.032 481.019 194.816 481.667 194.708C482.315 194.6 483.611 194.384 485.555 194.168C489.875 193.628 492.899 193.196 494.519 192.764C496.031 192.332 497.111 191.792 497.759 190.928C498.191 190.388 498.515 189.092 498.515 186.932C498.515 181.316 494.627 178.508 487.067 178.508C482.963 178.508 480.047 179.264 478.211 180.776C476.267 182.288 475.079 184.88 474.647 188.444H462.983ZM498.407 199.028C497.435 199.568 496.355 200 495.167 200.432C493.871 200.864 492.899 201.08 492.143 201.188C491.387 201.296 490.199 201.404 488.579 201.62C486.959 201.836 485.879 202.052 485.447 202.052C483.935 202.268 482.747 202.484 481.883 202.7C481.019 202.916 479.939 203.132 478.643 203.564C477.347 203.996 476.375 204.536 475.727 205.184C475.079 205.832 474.431 206.588 473.999 207.668C473.459 208.748 473.243 209.936 473.243 211.34C473.243 214.04 474.107 216.092 475.835 217.496C477.563 219.008 480.047 219.656 483.287 219.656C488.687 219.656 492.899 218.252 495.923 215.228C497.543 213.608 498.407 210.368 498.407 205.616V199.028ZM567.707 187.472H555.935C555.179 181.64 551.183 178.616 543.839 178.616C540.599 178.616 538.223 179.264 536.495 180.344C534.767 181.532 533.903 183.152 533.903 185.096C533.903 185.744 533.903 186.392 534.011 186.824C534.119 187.364 534.335 187.796 534.659 188.228C534.983 188.66 535.307 188.984 535.523 189.2C535.739 189.524 536.279 189.848 536.927 190.064C537.575 190.388 538.007 190.604 538.439 190.82C538.871 191.036 539.519 191.252 540.491 191.468C541.355 191.684 542.111 191.9 542.651 192.008C543.191 192.224 544.055 192.44 545.351 192.656C546.539 192.872 547.511 193.088 548.159 193.196C550.967 193.844 552.911 194.384 554.207 194.708C555.503 195.032 557.339 195.68 559.715 196.652C562.091 197.624 563.927 198.596 565.115 199.676C566.195 200.756 567.275 202.16 568.247 203.996C569.219 205.832 569.759 207.884 569.759 210.26C569.759 215.876 567.491 220.412 563.171 223.652C558.743 227 552.803 228.62 545.459 228.62C537.467 228.62 531.419 227 527.207 223.652C522.887 220.412 520.619 215.552 520.403 209.18H532.175C532.823 216.2 537.251 219.656 545.675 219.656C549.239 219.656 552.155 219.008 554.315 217.496C556.475 215.984 557.663 214.04 557.663 211.556C557.663 210.368 557.339 209.288 556.799 208.424C556.259 207.56 555.395 206.912 554.207 206.264C552.911 205.616 551.723 205.184 550.643 204.86C549.563 204.536 548.051 204.104 546.215 203.672L545.567 203.564C545.351 203.564 545.243 203.456 545.027 203.456C544.811 203.456 544.595 203.348 544.379 203.24C536.387 201.296 531.419 199.784 529.259 198.704C524.075 196.328 521.591 192.224 521.591 186.5C521.591 181.316 523.535 177.212 527.639 174.188C531.635 171.164 537.251 169.652 544.379 169.652C551.183 169.652 556.799 171.164 561.119 174.08C565.439 177.104 567.707 181.532 567.707 187.472ZM606.755 171.272V180.236H595.523V209.612C595.523 211.34 595.523 212.636 595.631 213.284C595.631 213.932 595.847 214.688 596.279 215.552C596.603 216.416 597.251 216.956 598.115 217.172C598.979 217.496 600.275 217.604 601.895 217.604C603.839 217.604 605.459 217.604 606.755 217.388V227.108C604.271 227.432 601.463 227.54 598.439 227.54C596.279 227.54 594.335 227.432 592.715 227.108C591.095 226.784 589.799 226.352 588.719 225.92C587.639 225.488 586.667 224.84 586.019 223.76C585.263 222.68 584.723 221.816 584.291 221.168C583.859 220.52 583.643 219.224 583.427 217.496C583.211 215.768 583.211 214.472 583.211 213.608V208.856V208.208V207.56V206.804V180.236H573.923V171.272H583.211V154.532H595.523V171.272H606.755ZM614.963 188.444C616.259 175.916 624.359 169.544 639.371 169.544C646.283 169.544 651.899 170.948 656.003 173.648C660.107 176.456 662.267 180.668 662.267 186.392V214.688C662.267 216.308 662.375 217.388 662.807 217.928C663.239 218.576 663.995 218.792 665.183 218.792C666.047 218.792 666.911 218.792 667.991 218.576V227.216C664.751 228.08 662.159 228.404 659.999 228.404C654.707 228.404 651.683 226.244 650.927 221.708C646.175 226.244 639.695 228.404 631.379 228.404C625.547 228.404 621.011 227 617.663 223.976C614.207 220.952 612.587 216.956 612.587 211.772C612.587 210.26 612.695 208.748 613.127 207.344C613.451 206.048 613.883 204.86 614.315 203.78C614.747 202.808 615.503 201.836 616.583 200.972C617.663 200.108 618.527 199.46 619.175 198.812C619.823 198.272 621.011 197.732 622.523 197.192C624.035 196.76 625.223 196.328 625.979 196.112C626.735 195.896 628.031 195.572 629.975 195.248C631.811 195.032 632.999 194.816 633.647 194.708C634.295 194.6 635.591 194.384 637.535 194.168C641.855 193.628 644.879 193.196 646.499 192.764C648.011 192.332 649.091 191.792 649.739 190.928C650.171 190.388 650.495 189.092 650.495 186.932C650.495 181.316 646.607 178.508 639.047 178.508C634.943 178.508 632.027 179.264 630.191 180.776C628.247 182.288 627.059 184.88 626.627 188.444H614.963ZM650.387 199.028C649.415 199.568 648.335 200 647.147 200.432C645.851 200.864 644.879 201.08 644.123 201.188C643.367 201.296 642.179 201.404 640.559 201.62C638.939 201.836 637.859 202.052 637.427 202.052C635.915 202.268 634.727 202.484 633.863 202.7C632.999 202.916 631.919 203.132 630.623 203.564C629.327 203.996 628.355 204.536 627.707 205.184C627.059 205.832 626.411 206.588 625.979 207.668C625.439 208.748 625.223 209.936 625.223 211.34C625.223 214.04 626.087 216.092 627.815 217.496C629.543 219.008 632.027 219.656 635.267 219.656C640.667 219.656 644.879 218.252 647.903 215.228C649.523 213.608 650.387 210.368 650.387 205.616V199.028Z" fill="white"/>
<rect x="7.5" y="8.5" width="687" height="251" stroke="#F2EFE9"/>
<rect x="687" width="15" height="15" fill="#D9D9D9"/>
<rect width="15" height="15" fill="#D9D9D9"/>
<rect x="687" y="252" width="15" height="15" fill="#D9D9D9"/>
<rect y="252" width="15" height="15" fill="#D9D9D9"/>
</svg>
