<svg width="178" height="178" viewBox="0 0 178 178" fill="none" xmlns="http://www.w3.org/2000/svg">
<rect width="178" height="178" rx="12" fill="url(#paint0_linear_2075_528)"/>
<path d="M54.2791 79.696C56.2951 76.896 58.6471 74.712 61.3351 73.144C64.0231 71.576 66.9351 70.792 70.0711 70.792L67.8871 83.14H64.7791C61.3071 83.14 58.5071 83.896 56.3791 85.408C54.3071 86.92 52.7951 89.496 51.8431 93.136L47.4751 118H35.6311L43.8631 71.464H55.7071L54.2791 79.696ZM102.016 59.368C108.008 59.368 112.544 60.74 115.624 63.484C118.704 66.172 120.244 69.7 120.244 74.068C120.244 75.132 120.16 76.224 119.992 77.344C119.32 81.152 117.584 84.624 114.784 87.76C112.04 90.84 108.344 92.996 103.696 94.228L113.524 118H99.8321L91.0961 95.152H85.4681L81.4361 118H69.5921L80.0081 59.368H102.016ZM107.896 77.596C108.008 76.588 108.064 75.916 108.064 75.58C108.064 73.452 107.392 71.8 106.048 70.624C104.704 69.448 102.66 68.86 99.9161 68.86H90.0881L86.9801 86.416H96.8081C99.9441 86.416 102.436 85.632 104.284 84.064C106.188 82.496 107.392 80.34 107.896 77.596ZM128.529 118.588C126.681 118.588 125.197 118.056 124.077 116.992C122.957 115.928 122.397 114.584 122.397 112.96C122.397 110.72 123.237 108.816 124.917 107.248C126.653 105.624 128.669 104.812 130.965 104.812C132.813 104.812 134.269 105.344 135.333 106.408C136.453 107.416 137.013 108.76 137.013 110.44C137.013 112.68 136.173 114.612 134.493 116.236C132.813 117.804 130.825 118.588 128.529 118.588Z" fill="white"/>
<defs>
<linearGradient id="paint0_linear_2075_528" x1="0" y1="0" x2="178" y2="178" gradientUnits="userSpaceOnUse">
<stop stop-color="#5D5D5D"/>
<stop offset="1" stop-color="#212121"/>
</linearGradient>
</defs>
</svg>
