<svg width="53" height="53" viewBox="0 0 53 53" fill="none" xmlns="http://www.w3.org/2000/svg">
<path d="M48.0062 0H4.99378C2.23579 0 0 2.23579 0 4.99378V48.0062C0 50.7642 2.23579 53 4.99378 53H48.0062C50.7642 53 53 50.7642 53 48.0062V4.99378C53 2.23579 50.7642 0 48.0062 0Z" fill="url(#paint0_linear_2065_485)"/>
<path d="M26.5 27.3881V37.6849L14.6966 30.7759V20.4791L23.4923 25.6268L26.5 27.3881Z" fill="url(#paint1_linear_2065_485)"/>
<path d="M38.3034 20.4791V30.7759L26.5 37.6849V27.3881L29.5077 25.6268L38.3034 20.4791Z" fill="url(#paint2_linear_2065_485)"/>
<path d="M26.5 13.5715V23.8669L23.4923 25.6268L14.6966 20.4791L26.5 13.5715Z" fill="url(#paint3_linear_2065_485)"/>
<path d="M38.3034 20.4791L29.5077 25.6268L26.5 23.8669V13.5715L38.3034 20.4791Z" fill="url(#paint4_linear_2065_485)"/>
<path d="M26.5 27.3881L22.9692 30.7759L11.1659 23.8669L14.6966 20.4791L23.4923 25.6268L26.5 27.3881Z" fill="url(#paint5_linear_2065_485)"/>
<path d="M29.5077 25.6268L26.5 27.3881L23.4923 25.6268L26.5 23.8669L29.5077 25.6268Z" fill="url(#paint6_linear_2065_485)"/>
<path d="M41.8341 23.8669L30.0308 30.7759L26.5 27.3881L29.5077 25.6268L38.3034 20.4791L41.8341 23.8669Z" fill="url(#paint7_linear_2065_485)"/>
<defs>
<linearGradient id="paint0_linear_2065_485" x1="1.81716" y1="1.81716" x2="53.9072" y2="53.9072" gradientUnits="userSpaceOnUse">
<stop stop-color="#4154A5"/>
<stop offset="1" stop-color="#007AAD"/>
</linearGradient>
<linearGradient id="paint1_linear_2065_485" x1="14.6966" y1="29.0813" x2="26.5" y2="29.0813" gradientUnits="userSpaceOnUse">
<stop stop-color="#E6E7E8"/>
<stop offset="1" stop-color="#BCBEC0"/>
</linearGradient>
<linearGradient id="paint2_linear_2065_485" x1="26.5" y1="29.0813" x2="38.3034" y2="29.0813" gradientUnits="userSpaceOnUse">
<stop stop-color="#D1D3D4"/>
<stop offset="1" stop-color="white"/>
</linearGradient>
<linearGradient id="paint3_linear_2065_485" x1="14.6966" y1="19.5991" x2="26.5" y2="19.5991" gradientUnits="userSpaceOnUse">
<stop stop-color="#BCBEC0"/>
<stop offset="0.92" stop-color="#A7A9AC"/>
<stop offset="0.99" stop-color="#A7A9AC"/>
</linearGradient>
<linearGradient id="paint4_linear_2065_485" x1="26.5" y1="19.5991" x2="38.3034" y2="19.5991" gradientUnits="userSpaceOnUse">
<stop stop-color="#A7A9AC"/>
<stop offset="0.19" stop-color="#A7A9AC"/>
<stop offset="1" stop-color="#D1D3D4"/>
</linearGradient>
<linearGradient id="paint5_linear_2065_485" x1="11.1658" y1="25.6282" x2="26.5" y2="25.6282" gradientUnits="userSpaceOnUse">
<stop stop-color="#F1F2F2"/>
<stop offset="1" stop-color="#E6E7E8"/>
</linearGradient>
<linearGradient id="paint6_linear_2065_485" x1="23.4923" y1="25.6282" x2="29.5077" y2="25.6282" gradientUnits="userSpaceOnUse">
<stop stop-color="#A7A9AC"/>
<stop offset="1" stop-color="#BCBEC0"/>
</linearGradient>
<linearGradient id="paint7_linear_2065_485" x1="26.5" y1="25.6282" x2="41.8342" y2="25.6282" gradientUnits="userSpaceOnUse">
<stop stop-color="#F1F2F2"/>
<stop offset="1" stop-color="#D1D3D4"/>
</linearGradient>
</defs>
</svg>
