<svg width="268" height="335" viewBox="0 0 268 335" fill="none" xmlns="http://www.w3.org/2000/svg">
<path d="M268 280.436C253.331 319.688 218.103 334.895 169.968 335H0L4.78092 317.592C17.5728 317.592 27.5195 316.218 34.6209 313.458C41.7456 310.722 47.4128 305.564 51.6107 298.03C55.8086 290.473 59.6799 279.9 63.1549 266.265L99.5482 124.161C120.619 121.541 136.793 114.147 148.908 105.588L108.037 261.025C105.414 270.597 104.119 278.736 104.119 285.385C104.119 295.841 107.746 303.596 115.01 308.673C122.275 313.75 152.745 316.288 170.749 316.288C193.989 316.288 213.159 313.61 228.248 308.23C239.781 305.552 252.806 297.075 268 280.424V280.436Z" fill="url(#paint0_linear_2065_480)"/>
<path d="M157.304 74.6152C155.986 79.0283 154.657 83.7442 153.316 88.7628L151.334 96.3198C151.334 96.3198 151.31 96.3198 151.31 96.3431C140.419 105.321 124.106 114.589 101.134 117.885L105.46 101.059C122.31 97.5773 137.726 90.521 150.657 80.3558C152.978 78.5393 155.182 76.618 157.304 74.6152Z" fill="url(#paint1_linear_2065_480)"/>
<path d="M222.185 0.0116441L217.52 16.9188C213.999 17.1168 210.501 17.4195 207.037 17.862C206.874 17.8853 206.734 17.8969 206.583 17.9202C198.782 18.6655 192.286 20.3189 187.109 22.8573C183.331 24.7204 179.868 27.4334 176.719 31.0315C171.355 36.0268 167.367 42.1399 163.484 48.0784C162.54 49.5222 161.607 50.9312 160.686 52.3168C155.986 59.2567 150.121 65.5096 143.253 70.9241C133.283 78.7838 121.599 84.5127 108.83 87.9477L112.41 73.9515C114.427 65.8356 116.037 58.8841 117.191 53.062C118.357 47.2633 118.928 42.3495 118.928 38.2741C118.928 29.2965 115.663 23.5676 109.122 21.1107C102.592 18.6538 91.4906 17.4079 75.7952 17.4079L80.5994 0H222.185V0.0116441Z" fill="url(#paint2_linear_2065_480)"/>
<defs>
<linearGradient id="paint0_linear_2065_480" x1="1.90239e-06" y1="0.011654" x2="256.073" y2="335.715" gradientUnits="userSpaceOnUse">
<stop stop-color="white"/>
<stop offset="1" stop-color="#F7C76F"/>
</linearGradient>
<linearGradient id="paint1_linear_2065_480" x1="1.90239e-06" y1="0.011654" x2="256.073" y2="335.715" gradientUnits="userSpaceOnUse">
<stop stop-color="white"/>
<stop offset="1" stop-color="#F7C76F"/>
</linearGradient>
<linearGradient id="paint2_linear_2065_480" x1="1.90239e-06" y1="0.011654" x2="256.073" y2="335.715" gradientUnits="userSpaceOnUse">
<stop stop-color="white"/>
<stop offset="1" stop-color="#F7C76F"/>
</linearGradient>
</defs>
</svg>
